HIERARCHY
ROOT simHips
{
  OFFSET 95.9864 99.6468 43.4371
  CHANNELS 6 Xposition Yposition Zposition Zrotation Xrotation Yrotation
  JOINT simSpine
  {
    OFFSET -0.000355721 21.3001 -0.016921
    CHANNELS 3 Zrotation Xrotation Yrotation
    JOINT simLeftArm
    {
      OFFSET 13.5181 21.3012 0
      CHANNELS 3 Zrotation Xrotation Yrotation
      JOINT simLeftForeArm
      {
        OFFSET 24.5783 0 0
        CHANNELS 3 Zrotation Xrotation Yrotation
        JOINT simLeftHand
        {
          OFFSET 24.5783 0 0
          CHANNELS 3 Zrotation Xrotation Yrotation
          End Site
          {
            OFFSET 7.32568 1.52588e-05 0.0169305
          }
        }
      }
    }
    JOINT simHead
    {
      OFFSET 0 27.4458 -0.00489235
      CHANNELS 3 Zrotation Xrotation Yrotation
      End Site
      {
        OFFSET 0 0 0
      }
    }
    JOINT simRightArm
    {
      OFFSET -13.5174 21.3012 0
      CHANNELS 3 Zrotation Xrotation Yrotation
      JOINT simRightForeArm
      {
        OFFSET -24.5783 0 0
        CHANNELS 3 Zrotation Xrotation Yrotation
        JOINT simRightHand
        {
          OFFSET -24.5783 0 0
          CHANNELS 3 Zrotation Xrotation Yrotation
          End Site
          {
            OFFSET -7.32568 1.52588e-05 0.0169305
          }
        }
      }
    }
  }
  JOINT simRightUpLeg
  {
    OFFSET -8.44614 -9.41038 0.835684
    CHANNELS 3 Zrotation Xrotation Yrotation
    JOINT simRightLeg
    {
      OFFSET 0 -40.9639 0
      CHANNELS 3 Zrotation Xrotation Yrotation
      JOINT simRightFoot
      {
        OFFSET 0 -40.9639 0
        CHANNELS 3 Zrotation Xrotation Yrotation
        End Site
        {
          OFFSET 0.50614 -9.67405 14.6709
        }
      }
    }
  }
  JOINT simLeftUpLeg
  {
    OFFSET 8.44614 -9.41038 0.835684
    CHANNELS 3 Zrotation Xrotation Yrotation
    JOINT simLeftLeg
    {
      OFFSET 0 -40.9639 0
      CHANNELS 3 Zrotation Xrotation Yrotation
      JOINT simLeftFoot
      {
        OFFSET 0 -40.9639 0
        CHANNELS 3 Zrotation Xrotation Yrotation
        End Site
        {
          OFFSET -0.50614 -9.67405 14.6709
        }
      }
    }
  }
}
MOTION
Frames:	24
Frame Time:	0.0333333
95.9864 99.6468 43.4371 0 0 -0 -1.70755e-06 0 -0 -6.83019e-06 -1.70755e-06 -1.53679e-05 8.54071e-06 -0.00680318 2.50139e-05 -4.26887e-07 7.18669e-14 -9.64601e-06 1.70755e-06 0 -0 6.83019e-06 -8.53773e-07 5.12264e-06 -5.11936e-06 0.0127182 -1.4782e-05 7.94671e-10 6.83019e-06 -0.00666162 1.04453 -0.466075 0.00427648 -0.00024994 0.0168959 0.00664818 -1.04428 0.449181 0.00402266 -1.21184 -2.37324 -0.0058505 -5.21686e-06 3.64053 0.0115525 1.21164 -1.26713 0.0210927 
96.431 99.6181 43.3858 -0.0660732 0.0792063 0.0118226 -0.0511352 0.00718881 -0.0429642 0.179163 0.0840105 -0.288005 0.0260125 -0.00680317 -0.0911787 0.112213 -0.206829 0.0819041 0.341711 0.0840048 0.430311 -0.0140919 -0.12931 -0.0585472 -0.0100465 0.0127182 0.0219121 0.0462248 -0.102044 -0.00666163 0.799123 -0.704025 -0.152975 0.0318308 0.24165 0.00664824 -0.611705 0.471134 0.0695031 -1.49973 -2.5008 0.0386303 0.0857 3.65985 -0.0288699 1.59147 -1.36154 0.00583973 
96.8485 99.602 43.3198 -0.172488 0.139158 0.0390682 -0.127477 0.0763985 -0.151631 0.422848 0.18513 -0.441518 0.0352923 -0.00680316 -0.124732 0.433199 -0.318665 -0.0780394 0.777984 0.158675 0.739799 0.052964 -0.236401 -0.00702147 0.0129767 0.0127182 7.74219e-05 -0.0683066 -0.124519 0.00376029 0.610689 -1.09349 -0.35514 0.105081 0.825339 0.00664887 -0.388968 0.36871 0.162846 -1.6789 -2.58816 -0.178616 0.0977571 3.61483 -0.0618456 1.8635 -1.4085 0.17919 
97.2432 99.5976 43.2165 -0.271612 0.212062 0.0940579 -0.241073 0.168268 -0.273449 0.72224 0.186984 -0.651929 -0.00271014 -0.00680318 0.000137141 0.556162 -0.182869 -0.0537958 1.23249 0.213256 0.809337 0.179548 -0.296275 0.0299383 0.0334356 0.0127182 -0.000171866 0.0087843 -0.231207 0.00940704 0.422372 -1.58281 -0.612146 0.188002 1.47933 0.0066504 -0.186327 0.329161 0.282039 -1.83532 -2.74051 -0.38175 0.124807 3.63611 -0.0811569 1.98802 -1.46559 0.246797 
97.6069 99.5925 43.1206 -0.410997 0.229346 0.17429 -0.346237 0.37162 -0.419681 1.07989 0.117135 -0.784243 -0.0242128 -0.00680318 1.33406e-05 0.380411 0.11618 -0.0565938 1.70722 0.177222 0.669362 0.327316 -0.299998 0.0892625 0.0772096 0.0127182 -0.000294952 0.134341 -0.323007 0.0830734 0.288722 -2.20096 -0.814756 0.277675 2.3503 0.00273425 -0.149755 0.268458 0.330239 -1.93795 -2.79555 -0.883403 0.125897 3.59289 -0.0917298 2.14054 -1.47702 0.592927 
97.8878 99.5801 43.0111 -0.529193 0.278938 0.365929 -0.536064 0.590138 -0.551055 1.48479 0.0130911 -0.975675 -0.0459715 -0.00680318 -4.89162e-05 0.367483 -0.0517559 -0.0390878 2.22932 0.00244429 0.316579 0.557214 -0.415452 -0.0365096 0.081954 0.0127182 -0.000414791 0.224721 -0.213301 0.0731457 0.16608 -2.91124 -1.0592 0.403381 3.61169 -0.00538614 -0.158887 -0.157287 0.301648 -1.99997 -2.89079 -1.15892 0.120918 3.51259 -0.107165 2.33326 -1.42452 0.632459 
98.2069 99.5507 42.9165 -0.631 0.198621 0.383349 -0.607497 0.909118 -0.475793 1.73665 0.216271 -1.16605 -0.0571438 -0.00680318 -0.000110625 0.304421 0.0123392 0.0643626 2.52993 -0.215 -0.0522179 0.630422 -0.487313 -0.196856 0.127172 0.0127182 -0.000531388 0.123833 -0.276053 0.0364223 -0.0324358 -4.17917 -1.07272 0.580205 6.15842 -0.0240348 -0.0132904 -1.08013 0.142541 -2.1343 -2.87462 -1.2318 0.170053 3.56081 -0.136141 2.47988 -1.56009 0.671021 
98.4382 99.5393 42.8476 -0.719478 0.12499 0.534037 -0.671999 1.15184 -0.57507 1.89386 0.210825 -1.32079 -0.0698989 -0.00680318 -0.000171743 0.123318 0.0241874 0.0993478 2.7195 -0.364636 -0.377982 0.683085 -0.516395 -0.2003 0.184369 0.0177347 -0.000644742 0.143142 -0.261384 -0.0216324 -0.249698 -5.22028 -1.45047 0.791068 8.58447 -0.0523015 0.3165 -2.05316 0.109877 -2.17017 -2.86069 -1.38086 0.158497 3.62028 -0.153878 2.47351 -1.72264 0.589437 
98.5922 99.535 42.83 -0.832438 -0.0662403 0.823335 -0.627951 1.37309 -0.821236 1.83135 0.0502012 -1.51878 -0.0948197 -0.00680318 -0.000232228 0.286224 0.247196 -0.0227373 2.74951 -0.259111 -0.563058 0.668112 -0.426675 -0.127924 0.201483 0.0200414 -0.000754858 0.342151 -0.229994 0.0506241 -0.377733 -6.64746 -1.65615 0.981546 11.4104 -0.0892395 0.852225 -3.20192 -0.95584 -2.17721 -2.66705 -1.93802 0.169865 3.61697 -0.183036 2.50938 -1.75277 0.867599 
98.6374 99.5513 42.8692 -0.899243 -0.281622 1.10061 -0.626488 1.45498 -1.02752 1.68337 0.243505 -1.70777 -0.0808128 -0.00680318 -0.000292038 0.19827 0.0859274 0.0443399 2.70834 0.011809 -0.773662 0.657215 -0.205624 0.00325232 0.211386 0.021403 -0.000861736 0.352819 -0.210017 0.0447575 -0.422249 -7.14691 -1.8686 1.10203 12.7658 -0.117094 0.94889 -3.84305 -1.98534 -2.15467 -2.42404 -2.30961 0.187953 3.62037 -0.171434 2.52771 -1.73817 0.95751 
98.5645 99.5416 42.9771 -0.866112 -0.490342 1.38596 -0.739945 1.41215 -1.11976 1.53388 0.519396 -2.09351 -0.112888 -0.00802096 -0.00035113 0.048494 0.397075 -0.0274243 2.63357 0.47238 -1.11419 0.666117 0.00624842 0.0839269 0.218973 0.0220633 -0.000965378 0.364052 -0.0596514 0.0417811 -0.393501 -6.75793 -1.86961 1.07309 12.3311 -0.114727 0.382903 -3.95882 -2.27942 -2.14637 -2.14021 -2.22014 0.186842 3.6247 -0.169327 2.52215 -1.83059 0.62784 
98.389 99.5011 43.1502 -0.697068 -0.596021 1.71677 -1.02647 1.17144 -1.19951 1.46814 1.02067 -2.56231 -0.135352 -0.00923167 -0.000409463 -0.0559366 0.482177 0.205518 2.61469 0.960752 -1.50135 0.648682 0.276844 0.107571 0.234225 0.0222657 -0.00106579 0.523135 -0.0716292 0.182466 -0.357269 -5.54971 -1.90549 0.92138 10.2822 -0.0841319 -0.231082 -2.5658 -2.42911 -2.20333 -1.98686 -2.14177 0.156775 3.73854 -0.144866 2.58546 -1.99296 0.228634 
98.1706 99.4598 43.3577 -0.513936 -0.581509 1.81385 -1.23969 0.806138 -1.02527 1.33261 1.1304 -3.00961 -0.12635 -0.0105012 -0.000466993 -0.0957325 0.507992 0.29745 2.39753 1.42924 -1.82657 0.548647 0.265984 0.166002 0.276224 0.0222539 -0.00116297 0.494317 0.180405 0.19873 -0.314583 -4.4407 -2.14012 0.803363 8.53088 -0.0624001 -0.779526 -2.13058 -2.22068 -2.29176 -1.86212 -2.51592 0.156663 3.7419 -0.134944 2.64708 -2.09426 0.547955 
97.9018 99.4922 43.5956 -0.581521 -0.63092 1.73577 -1.11601 0.517778 -0.719453 1.02822 0.957837 -3.3313 -0.113077 -0.0117867 -0.000523679 0.093762 0.665863 0.217441 1.99885 1.90538 -2.05192 0.508678 0.595701 0.136454 0.177879 0.0222714 -0.00125691 0.474573 -0.166882 0.134738 0.0257528 -3.66815 -2.63327 0.651799 7.00302 -0.0420623 -0.968083 -1.30732 -1.72416 -2.01314 -1.67146 -2.04203 0.159902 3.74736 -0.114522 2.54048 -2.16358 0.162872 
97.601 99.5718 43.8346 -0.704733 -0.655842 1.50849 -0.931366 0.242517 -0.487249 0.598376 0.924705 -3.28694 -0.0751334 -0.0130451 -0.000579479 0.020926 0.544788 0.194565 1.63507 2.08166 -2.0507 0.539423 0.569648 0.445343 0.211584 0.0225618 -0.00134764 0.496966 -0.0361765 0.103959 0.446009 -2.5388 -2.72718 0.527942 5.12456 -0.0194247 -0.821817 -0.523713 -1.35358 -1.64217 -1.49731 -1.74424 0.136297 3.77777 -0.106735 2.28447 -2.21642 0.137333 
97.2514 99.6356 44.0668 -0.756642 -0.59126 1.33294 -0.819512 -0.109436 -0.299441 0.312862 1.01353 -3.19795 -0.102965 -0.0142337 -0.000634349 -0.109217 0.666567 0.266487 1.30459 2.21882 -1.99855 0.550391 0.63115 0.673763 0.200882 0.0233688 -0.00143513 0.57934 0.196331 0.0723805 0.79834 -1.63483 -2.98214 0.403922 3.39001 -0.00568143 -0.878436 0.147837 -0.856566 -1.33594 -1.42357 -1.43812 0.138836 3.79039 -0.0863202 2.04345 -2.21331 0.0383164 
96.8751 99.6481 44.2817 -0.763118 -0.530081 1.13512 -0.768062 -0.324157 -0.148304 0.182052 0.988749 -2.95547 -0.141921 -0.0153094 -0.000688248 -0.296178 0.759167 0.378986 1.07384 2.06822 -1.97148 0.514457 0.581474 0.867895 0.175218 0.0252253 -0.00151941 0.566128 0.00283913 0.165296 1.16372 -1.01519 -2.83354 0.279378 2.25777 0.00185552 -0.912075 0.473378 -0.806157 -1.07418 -1.35685 -1.02703 0.113199 3.80152 -0.0695163 2.02292 -2.21097 -0.0944914 
96.4971 99.6622 44.4662 -0.762524 -0.451646 0.883899 -0.69876 -0.494176 0.0739215 0.0367672 0.574118 -2.77305 -0.170709 -0.0162294 -0.000741134 -0.279673 0.830662 0.388824 0.857797 1.89511 -1.96961 0.541913 0.398187 0.982485 0.152043 0.0273765 -0.00160046 0.417368 -0.0737424 0.126835 1.52338 -0.443387 -2.57405 0.136654 1.15505 0.00206846 -1.10859 0.733334 -0.786995 -0.794653 -1.34124 -0.715194 0.095616 3.84032 -0.0343061 1.80912 -2.2461 -0.155456 
96.1407 99.6863 44.6327 -0.763537 -0.387595 0.635832 -0.542758 -0.639122 0.371925 -0.202401 0.34044 -2.61795 -0.156566 -0.0169508 -0.000792964 -0.272201 0.445401 0.441357 0.532343 1.8414 -2.02056 0.555889 0.274218 0.991852 0.166563 0.0281346 -0.00167829 0.487953 -0.0146971 0.194129 1.84727 0.180345 -2.39674 0.00158079 -0.0274024 -0.000902591 -1.14663 1.08801 -0.659101 -0.553816 -1.28529 -0.64267 0.0922241 3.78368 0.00912566 1.65403 -2.10828 0.027254 
95.784 99.7102 44.7331 -0.779905 -0.36464 0.441868 -0.371249 -0.633574 0.596141 -0.441634 0.0974886 -2.50912 -0.166535 -0.0175537 -0.000843695 -0.325897 0.589414 0.40356 0.255017 1.64289 -1.9976 0.612976 0.164038 0.964441 0.196397 0.0255436 -0.00175291 0.496678 -0.0201588 0.216361 2.14267 0.199519 -2.15269 -0.0905076 0.000577484 -0.00510819 -1.30238 0.966125 -0.671809 -0.154307 -1.53001 -0.493501 -0.208305 4.37001 0.0338928 1.68039 -2.24227 0.111159 
95.4569 99.7285 44.7598 -0.75587 -0.430662 0.364911 -0.174433 -0.394591 0.798976 -0.774677 -0.0382094 -2.46667 -0.179224 -0.0181469 -0.000893286 -0.326298 0.559988 0.410055 -0.16534 1.41893 -2.03632 0.626487 0.0269351 0.797086 0.210536 0.0238741 -0.00182431 0.417874 -0.0980145 0.169418 2.37366 0.283496 -1.96994 -0.147953 -0.0031078 -0.00859912 -1.42666 0.993644 -0.77886 0.203104 -1.99265 -0.568453 -0.571272 5.40932 0.0694949 1.82674 -2.42536 0.276151 
95.1736 99.741 44.7195 -0.682291 -0.508197 0.327428 0.00836826 -0.0229964 0.89782 -1.12496 -0.0779688 -2.3324 -0.17411 -0.0187297 -0.000941694 -0.399121 0.599626 0.426286 -0.531003 1.11695 -1.95808 0.572206 -0.0264438 0.686575 0.220477 0.022402 -0.0018925 0.332451 0.00249065 0.215617 2.49706 0.302756 -1.82836 -0.174744 0.0579064 -0.0109533 -1.60017 1.00683 -0.846804 0.433016 -2.26886 -0.467024 -0.847511 6.11046 0.104791 1.9623 -2.4458 0.259539 
94.9135 99.7494 44.6544 -0.569873 -0.535909 0.424065 0.146663 0.289315 0.860267 -1.44381 -0.221799 -2.26355 -0.175324 -0.0193019 -0.000988877 -0.507342 0.663781 0.395345 -0.820835 0.914062 -1.92211 0.549154 -0.0552979 0.596263 0.237343 0.0211091 -0.00195748 0.25358 -0.00275083 0.298358 2.56152 0.323886 -1.78941 -0.212484 0.00232057 -0.0148764 -1.58792 1.07904 -0.951776 0.575842 -2.57392 -0.218457 -1.03758 6.62389 0.133574 2.0276 -2.34948 -0.0427864 
94.6725 99.7605 44.5788 -0.38016 -0.458211 0.614284 0.158415 0.472268 0.795367 -1.69792 -0.0888799 -2.25927 -0.17933 -0.0198629 -0.00103479 -0.47862 0.319931 0.447766 -0.947913 0.842516 -2.01648 0.635273 -0.273341 0.451224 0.22892 0.0199769 -0.00201925 0.222555 0.0329675 0.162499 2.51164 0.164568 -1.78473 -0.255961 0.0719242 -0.0210908 -1.70239 1.00503 -1.03543 0.611904 -3.1034 -0.262304 -1.22638 7.248 0.159708 2.07982 -2.15994 -0.193708 
